<svg width="49" height="13" viewBox="0 0 49 13" fill="none" xmlns="http://www.w3.org/2000/svg">
<path d="M32 1V12H34.9091V4.70226L39.7576 12L44.6061 4.70226V12H48L47.93 1H43.9193L43.6364 1.29665L39.7576 6.64832L35.7175 1H32Z" fill="white" stroke="white"/>
<path d="M4 8.50001V12L2 12H1V6H10C10.8 6 11 5.33333 11 5V4.5C11 3.7 10.3333 3.5 10 3.5H1V1H11C12.6 1 13.6667 3.00001 14 4.00001V5.00001C14 7.00001 12.3333 8.16668 11.5 8.50001L14 12H11L8 8.50001H4Z" fill="white"/>
<path d="M1.5 12L2 12M2 12L4 12V8.50001H8L11 12H14L11.5 8.50001C12.3333 8.16668 14 7.00001 14 5.00001C14 3.00001 14 3.50001 14 4.00001C13.6667 3.00001 12.6 1 11 1C9.4 1 3.66667 1 1 1V3.5H10C10.3333 3.5 11 3.7 11 4.5C11 5.3 11 5.16667 11 5C11 5.33333 10.8 6 10 6C9.2 6 3.66667 6 1 6V12H2Z" stroke="white"/>
<path d="M17.48 6.26087V12H20.36V9.13043H20.84H26.6C28.04 9.13043 29 6.64348 29 6.26087V3.3913L27.56 1.95652C27.08 1.47826 26.28 1.15942 25.64 1H17V3.86957H17.48H24.2C24.68 3.86957 25.736 3.96522 26.12 4.34783C26.6 5.30435 26.3949 5.50868 26.12 5.78261C25.736 6.16522 25.32 6.26087 24.68 6.26087H17.48Z" fill="white" stroke="white"/>
</svg>
